<?xml version="1.0" encoding="UTF-8"?>
<svg xmlns="http://www.w3.org/2000/svg" xmlns:xlink="http://www.w3.org/1999/xlink" width="31px" height="35px" viewBox="0 0 31 35" version="1.1">
<g id="surface1">
<path style=" stroke:none;fill-rule:nonzero;fill:rgb(0%,0%,0%);fill-opacity:1;" d="M 14.054688 0.0703125 C 5.941406 0.957031 -0.242188 8.839844 0.0195312 17.976562 C 0.0976562 20.636719 0.605469 22.941406 1.640625 25.285156 C 3.148438 28.71875 5.558594 31.4375 8.605469 33.148438 C 13.539062 35.921875 19.375 35.539062 23.976562 32.140625 C 25.773438 30.816406 27.480469 28.847656 28.644531 26.757812 C 29.09375 25.960938 29.757812 24.417969 30.0625 23.488281 C 30.371094 22.546875 30.726562 20.917969 30.855469 19.859375 C 30.992188 18.785156 31.011719 16.296875 30.890625 15.347656 C 30.535156 12.507812 29.734375 10.089844 28.410156 7.835938 C 27.851562 6.875 27.289062 6.097656 26.5 5.203125 C 24.085938 2.445312 21.082031 0.738281 17.648438 0.164062 C 16.910156 0.0390625 14.828125 -0.015625 14.054688 0.0703125 Z M 15.972656 4.757812 C 16.257812 4.886719 16.503906 5.15625 16.65625 5.484375 C 16.765625 5.726562 16.773438 5.976562 16.773438 12.339844 C 16.773438 15.96875 16.789062 18.9375 16.820312 18.9375 C 16.84375 18.9375 17.546875 18.164062 18.375 17.226562 C 19.78125 15.632812 19.914062 15.503906 20.210938 15.40625 C 20.609375 15.273438 20.90625 15.328125 21.28125 15.59375 C 21.597656 15.820312 21.859375 16.335938 21.859375 16.75 C 21.859375 17.390625 21.894531 17.34375 19.023438 20.597656 C 17.535156 22.285156 16.21875 23.71875 16.105469 23.789062 C 15.777344 23.972656 15.523438 24.015625 15.179688 23.925781 C 14.871094 23.84375 14.792969 23.761719 12.117188 20.753906 C 10.273438 18.683594 9.335938 17.582031 9.257812 17.398438 C 9.113281 17.046875 9.113281 16.523438 9.257812 16.160156 C 9.445312 15.695312 9.964844 15.3125 10.414062 15.3125 C 10.875 15.3125 11.007812 15.421875 12.59375 17.207031 C 13.449219 18.15625 14.160156 18.9375 14.1875 18.9375 C 14.210938 18.9375 14.226562 15.96875 14.226562 12.339844 C 14.226562 5.976562 14.234375 5.726562 14.34375 5.484375 C 14.664062 4.785156 15.367188 4.46875 15.972656 4.757812 Z M 20.914062 25.914062 C 21.894531 26.195312 22.183594 27.652344 21.414062 28.417969 C 21.292969 28.539062 21.09375 28.671875 20.96875 28.703125 C 20.652344 28.804688 10.347656 28.804688 10.03125 28.703125 C 9.90625 28.671875 9.707031 28.539062 9.585938 28.417969 C 8.832031 27.671875 9.089844 26.265625 10.03125 25.929688 C 10.347656 25.820312 20.53125 25.804688 20.914062 25.914062 Z M 20.914062 25.914062 "/>
</g>
</svg>
