<?xml version="1.0" encoding="UTF-8"?>
<svg fill='white' xmlns="http://www.w3.org/2000/svg" xmlns:xlink="http://www.w3.org/1999/xlink" width="31px" height="35px" viewBox="0 0 31 35" version="1.1">
<g id="surface1">
<path style=" stroke:none;fill-rule:nonzero;fill:rgb(0%,0%,0%);fill-opacity:1;" d="M 12.496094 6.417969 C 12.289062 6.5625 12.109375 6.929688 12.109375 7.210938 C 12.109375 7.8125 12.691406 8.3125 13.175781 8.132812 C 13.828125 7.890625 13.945312 6.820312 13.363281 6.425781 C 13.113281 6.253906 12.738281 6.253906 12.496094 6.417969 Z M 12.496094 6.417969 "/>
<path style=" stroke:none;fill-rule:nonzero;fill:rgb(0%,0%,0%);fill-opacity:1;" d="M 11.425781 9.097656 C 10.007812 9.257812 8.277344 9.816406 6.992188 10.539062 C 3.851562 12.3125 1.851562 15.304688 1.488281 18.804688 L 1.460938 19.121094 L 4.378906 19.160156 C 10.789062 19.257812 24.28125 19.367188 24.320312 19.320312 C 24.363281 19.269531 24.253906 18.273438 24.144531 17.789062 L 24.085938 17.5 L 19.132812 17.5 L 19.132812 16.679688 L 21.492188 16.664062 L 23.847656 16.644531 L 23.554688 15.949219 C 23.394531 15.566406 23.136719 15.03125 22.984375 14.765625 L 22.703125 14.289062 L 20.101562 14.289062 L 20.101562 13.46875 L 22.125 13.46875 L 21.734375 13.015625 C 21.519531 12.769531 21.144531 12.386719 20.902344 12.160156 L 20.457031 11.757812 L 17.5 11.757812 L 17.5 10.9375 L 18.425781 10.9375 L 19.34375 10.929688 L 18.859375 10.648438 C 16.625 9.359375 14.023438 8.820312 11.425781 9.097656 Z M 10.4375 10.808594 C 10.457031 10.921875 10.476562 11.109375 10.476562 11.210938 C 10.476562 11.382812 10.449219 11.410156 10.21875 11.449219 C 8.96875 11.675781 7.804688 12.234375 6.847656 13.078125 L 6.453125 13.417969 L 6.222656 13.117188 L 6 12.824219 L 6.132812 12.660156 C 6.351562 12.394531 7.378906 11.648438 7.894531 11.390625 C 8.429688 11.117188 9.148438 10.847656 9.75 10.703125 C 10.347656 10.554688 10.394531 10.5625 10.4375 10.808594 Z M 5.65625 13.734375 L 5.890625 14.007812 L 5.703125 14.273438 C 5.375 14.730469 5.363281 14.738281 5.0625 14.484375 C 4.910156 14.363281 4.800781 14.234375 4.824219 14.191406 C 4.90625 14.035156 5.339844 13.46875 5.382812 13.46875 C 5.40625 13.46875 5.527344 13.589844 5.65625 13.734375 Z M 5.65625 13.734375 "/>
<path style=" stroke:none;fill-rule:nonzero;fill:rgb(0%,0%,0%);fill-opacity:1;" d="M 20.804688 11 C 20.835938 11.03125 21.035156 11.21875 21.246094 11.410156 L 21.632812 11.757812 L 23.671875 11.757812 L 23.671875 10.9375 L 22.207031 10.9375 C 21.34375 10.9375 20.765625 10.964844 20.804688 11 Z M 20.804688 11 "/>
<path style=" stroke:none;fill-rule:nonzero;fill:rgb(0%,0%,0%);fill-opacity:1;" d="M 24.582031 11.347656 L 24.582031 11.757812 L 26.519531 11.757812 L 26.519531 10.9375 L 24.582031 10.9375 Z M 24.582031 11.347656 "/>
<path style=" stroke:none;fill-rule:nonzero;fill:rgb(0%,0%,0%);fill-opacity:1;" d="M 27.304688 11.347656 L 27.304688 11.757812 L 28.457031 11.757812 L 28.457031 10.9375 L 27.304688 10.9375 Z M 27.304688 11.347656 "/>
<path style=" stroke:none;fill-rule:nonzero;fill:rgb(0%,0%,0%);fill-opacity:1;" d="M 23.128906 13.507812 C 23.128906 13.527344 23.230469 13.710938 23.359375 13.910156 L 23.582031 14.28125 L 24.933594 14.289062 L 26.277344 14.289062 L 26.277344 13.46875 L 24.703125 13.46875 C 23.835938 13.46875 23.128906 13.488281 23.128906 13.507812 Z M 23.128906 13.507812 "/>
<path style=" stroke:none;fill-rule:nonzero;fill:rgb(0%,0%,0%);fill-opacity:1;" d="M 27.1875 13.875 L 27.1875 14.289062 L 29.0625 14.289062 L 29.0625 13.46875 L 27.1875 13.46875 Z M 27.1875 13.875 "/>
<path style=" stroke:none;fill-rule:nonzero;fill:rgb(0%,0%,0%);fill-opacity:1;" d="M 29.910156 13.875 L 29.910156 14.289062 L 31 14.289062 L 31 13.46875 L 29.910156 13.46875 Z M 29.910156 13.875 "/>
<path style=" stroke:none;fill-rule:nonzero;fill:rgb(0%,0%,0%);fill-opacity:1;" d="M 24.667969 16.789062 C 24.691406 16.851562 24.734375 17.035156 24.769531 17.199219 C 24.835938 17.492188 24.847656 17.5 25.074219 17.5 L 25.308594 17.5 L 25.308594 16.679688 L 24.96875 16.679688 C 24.679688 16.679688 24.636719 16.695312 24.667969 16.789062 Z M 24.667969 16.789062 "/>
<path style=" stroke:none;fill-rule:nonzero;fill:rgb(0%,0%,0%);fill-opacity:1;" d="M 26.21875 17.089844 L 26.21875 17.5 L 28.09375 17.5 L 28.09375 16.679688 L 26.21875 16.679688 Z M 26.21875 17.089844 "/>
<path style=" stroke:none;fill-rule:nonzero;fill:rgb(0%,0%,0%);fill-opacity:1;" d="M 28.941406 17.089844 L 28.941406 17.5 L 30.03125 17.5 L 30.03125 16.679688 L 28.941406 16.679688 Z M 28.941406 17.089844 "/>
<path style=" stroke:none;fill-rule:nonzero;fill:rgb(0%,0%,0%);fill-opacity:1;" d="M 0.980469 20.050781 C 0.5625 20.226562 0.152344 20.78125 0.0351562 21.335938 L 0 21.519531 L 2.984375 21.5625 C 4.621094 21.582031 9.046875 21.636719 12.804688 21.671875 C 16.570312 21.703125 21.027344 21.757812 22.722656 21.78125 C 25.785156 21.828125 25.792969 21.828125 25.792969 21.683594 C 25.792969 21.476562 25.59375 20.980469 25.398438 20.726562 C 25.308594 20.601562 25.121094 20.4375 24.980469 20.359375 C 24.734375 20.214844 24.703125 20.214844 16.257812 20.125 C 11.59375 20.078125 6.296875 20.03125 4.480469 20.007812 C 2 19.980469 1.132812 19.988281 0.980469 20.050781 Z M 0.980469 20.050781 "/>
<path style=" stroke:none;fill-rule:nonzero;fill:rgb(0%,0%,0%);fill-opacity:1;" d="M 3.453125 22.625 C 2.996094 22.734375 2.355469 23.140625 2.015625 23.53125 C 1.199219 24.472656 1.003906 25.765625 1.5 26.953125 C 2.453125 29.222656 5.296875 29.328125 6.4375 27.132812 C 7.273438 25.53125 6.519531 23.378906 4.910156 22.757812 C 4.511719 22.601562 3.832031 22.539062 3.453125 22.625 Z M 4.558594 23.898438 C 4.917969 24.035156 5.347656 24.460938 5.496094 24.835938 C 6.023438 26.070312 5.238281 27.507812 4.039062 27.507812 C 2.914062 27.5 2.136719 26.339844 2.445312 25.128906 C 2.597656 24.539062 3.050781 24.035156 3.570312 23.851562 C 3.828125 23.761719 4.261719 23.78125 4.558594 23.898438 Z M 4.558594 23.898438 "/>
<path style=" stroke:none;fill-rule:nonzero;fill:rgb(0%,0%,0%);fill-opacity:1;" d="M 3.601562 24.601562 C 2.589844 25.128906 2.90625 26.8125 4.015625 26.8125 C 4.347656 26.8125 4.535156 26.722656 4.757812 26.460938 C 5.253906 25.886719 5.097656 24.929688 4.460938 24.601562 C 4.140625 24.445312 3.910156 24.4375 3.601562 24.601562 Z M 3.601562 24.601562 "/>
<path style=" stroke:none;fill-rule:nonzero;fill:rgb(0%,0%,0%);fill-opacity:1;" d="M 20.894531 22.757812 C 19.339844 23.414062 18.613281 25.339844 19.3125 26.96875 C 19.648438 27.753906 20.199219 28.289062 20.957031 28.574219 C 21.277344 28.695312 21.445312 28.71875 21.953125 28.695312 C 22.515625 28.675781 22.601562 28.65625 23.027344 28.417969 C 23.613281 28.089844 24.03125 27.617188 24.320312 26.960938 C 24.507812 26.523438 24.539062 26.378906 24.5625 25.828125 C 24.589844 25.292969 24.574219 25.117188 24.460938 24.753906 C 24.199219 23.882812 23.734375 23.277344 23.007812 22.878906 C 22.644531 22.679688 22.554688 22.660156 21.917969 22.648438 C 21.34375 22.625 21.167969 22.648438 20.894531 22.757812 Z M 22.558594 23.980469 C 23.085938 24.289062 23.425781 24.84375 23.472656 25.5 C 23.613281 27.207031 21.753906 28.179688 20.675781 26.96875 C 19.847656 26.023438 20.167969 24.355469 21.269531 23.898438 C 21.617188 23.753906 22.238281 23.796875 22.558594 23.980469 Z M 22.558594 23.980469 "/>
<path style=" stroke:none;fill-rule:nonzero;fill:rgb(0%,0%,0%);fill-opacity:1;" d="M 21.386719 24.617188 C 21.050781 24.800781 20.875 25.09375 20.839844 25.503906 C 20.804688 25.929688 20.851562 26.121094 21.046875 26.386719 C 21.546875 27.054688 22.46875 26.921875 22.777344 26.132812 C 23.015625 25.53125 22.789062 24.875 22.257812 24.601562 C 21.929688 24.4375 21.707031 24.4375 21.386719 24.617188 Z M 21.386719 24.617188 "/>
</g>
</svg>
