<?xml version="1.0" encoding="UTF-8"?>
<svg xmlns="http://www.w3.org/2000/svg" xmlns:xlink="http://www.w3.org/1999/xlink" width="31px" height="35px" viewBox="0 0 31 35" version="1.1">
<g id="surface1">
<path style=" stroke:none;fill-rule:nonzero;fill:rgb(0%,0%,0%);fill-opacity:1;" d="M 12.648438 6 C 12.273438 6.21875 11.964844 6.644531 11.859375 7.0625 C 11.777344 7.417969 11.820312 8.039062 11.953125 8.320312 L 12.046875 8.53125 L 11.726562 8.578125 C 10.050781 8.8125 8.644531 9.269531 7.328125 10.015625 C 5.988281 10.765625 5.226562 11.390625 4.207031 12.539062 C 2.65625 14.300781 1.769531 16.296875 1.515625 18.609375 L 1.441406 19.277344 L 1.1875 19.441406 C 0.664062 19.78125 0.265625 20.417969 0.0898438 21.171875 C -0.0351562 21.726562 -0.0234375 22.03125 0.128906 22.1875 C 0.242188 22.304688 0.386719 22.320312 1.582031 22.351562 L 2.90625 22.386719 L 2.574219 22.675781 C 1.652344 23.480469 1.179688 24.882812 1.40625 26.167969 C 1.660156 27.632812 2.585938 28.730469 3.875 29.09375 C 4.382812 29.238281 5.273438 29.1875 5.765625 29 C 6.746094 28.601562 7.554688 27.625 7.839844 26.503906 C 7.972656 25.976562 7.972656 25.082031 7.839844 24.5625 C 7.640625 23.78125 7.210938 23.070312 6.601562 22.53125 L 6.386719 22.347656 L 6.960938 22.382812 C 7.277344 22.402344 10.367188 22.4375 13.816406 22.460938 L 20.09375 22.511719 L 19.71875 22.929688 C 18.703125 24.054688 18.460938 25.773438 19.101562 27.207031 C 19.441406 27.964844 20.136719 28.65625 20.890625 28.964844 C 21.289062 29.132812 21.425781 29.15625 22.039062 29.15625 C 22.894531 29.15625 23.335938 29.003906 23.96875 28.5 C 24.695312 27.925781 25.1875 27.015625 25.320312 25.996094 C 25.460938 24.929688 25.121094 23.789062 24.425781 22.988281 L 24.050781 22.558594 L 25.277344 22.558594 C 26.386719 22.558594 26.507812 22.546875 26.597656 22.4375 C 26.71875 22.285156 26.726562 22.023438 26.632812 21.519531 C 26.488281 20.726562 26.042969 19.996094 25.527344 19.6875 C 25.261719 19.523438 25.253906 19.515625 25.21875 19.105469 C 25.175781 18.675781 25.085938 17.984375 25.023438 17.71875 C 24.992188 17.582031 25.019531 17.570312 25.210938 17.570312 L 25.429688 17.570312 L 25.429688 16.75 L 24.78125 16.75 L 24.671875 16.421875 C 24.617188 16.242188 24.394531 15.722656 24.183594 15.257812 L 23.800781 14.421875 L 26.398438 14.421875 L 26.398438 13.671875 L 23.304688 13.671875 L 23.140625 13.445312 C 23.054688 13.328125 22.734375 12.941406 22.4375 12.59375 L 21.894531 11.960938 L 23.855469 11.960938 L 23.855469 11.140625 L 22.378906 11.140625 C 21.046875 11.140625 20.890625 11.128906 20.761719 11.019531 C 20.5625 10.847656 19.652344 10.242188 19.285156 10.027344 C 18.230469 9.441406 16.511719 8.84375 15.378906 8.679688 C 15.0625 8.632812 14.773438 8.585938 14.730469 8.570312 C 14.683594 8.558594 14.695312 8.449219 14.785156 8.1875 C 14.925781 7.773438 14.914062 7.136719 14.753906 6.789062 C 14.34375 5.890625 13.417969 5.542969 12.648438 6 Z M 13.828125 6.773438 C 14.308594 7.199219 14.257812 8.039062 13.738281 8.351562 C 13.03125 8.777344 12.253906 7.914062 12.625 7.109375 C 12.773438 6.773438 13 6.632812 13.351562 6.632812 C 13.582031 6.632812 13.714844 6.671875 13.828125 6.773438 Z M 14.5 9.367188 C 15.996094 9.53125 17.578125 10.023438 18.859375 10.734375 L 19.585938 11.128906 L 18.726562 11.136719 L 17.859375 11.140625 L 17.859375 11.960938 L 20.726562 11.960938 L 21.0625 12.285156 C 21.5 12.6875 22.28125 13.546875 22.28125 13.617188 C 22.28125 13.652344 21.84375 13.671875 21.3125 13.671875 L 20.34375 13.671875 L 20.34375 14.421875 L 21.632812 14.4375 L 22.917969 14.457031 L 23.140625 14.835938 C 23.382812 15.238281 23.976562 16.535156 23.976562 16.664062 C 23.976562 16.726562 23.382812 16.75 21.707031 16.75 L 19.4375 16.75 L 19.4375 17.570312 L 24.21875 17.570312 L 24.285156 17.753906 C 24.359375 17.972656 24.550781 19.339844 24.515625 19.378906 C 24.496094 19.394531 21.75 19.378906 18.40625 19.339844 C 15.058594 19.304688 10.058594 19.25 7.285156 19.222656 C 4.515625 19.195312 2.234375 19.15625 2.210938 19.125 C 2.132812 19.046875 2.359375 17.683594 2.574219 16.96875 C 4.042969 11.996094 9.082031 8.789062 14.5 9.367188 Z M 15.984375 20.132812 C 21.761719 20.1875 24.910156 20.25 25.011719 20.289062 C 25.40625 20.46875 25.914062 21.21875 25.914062 21.628906 C 25.914062 21.757812 25.816406 21.757812 21.269531 21.71875 C 10.679688 21.621094 0.816406 21.511719 0.792969 21.492188 C 0.734375 21.429688 0.871094 20.964844 1.035156 20.691406 C 1.222656 20.371094 1.507812 20.125 1.804688 20.03125 C 1.894531 20 3.125 19.996094 4.539062 20.007812 C 5.957031 20.023438 11.105469 20.078125 15.984375 20.132812 Z M 5.636719 22.734375 C 6.539062 23.140625 7.164062 24 7.328125 25.082031 C 7.519531 26.339844 6.894531 27.644531 5.820312 28.226562 C 5.417969 28.4375 5.292969 28.472656 4.800781 28.492188 C 4.074219 28.53125 3.535156 28.347656 3.003906 27.898438 C 1.40625 26.515625 1.664062 23.808594 3.488281 22.824219 C 4.117188 22.492188 4.996094 22.457031 5.636719 22.734375 Z M 23.21875 22.832031 C 24.285156 23.40625 24.910156 24.71875 24.714844 25.984375 C 24.484375 27.488281 23.402344 28.507812 22.03125 28.507812 C 20.699219 28.507812 19.605469 27.480469 19.367188 26.011719 C 19.144531 24.617188 19.949219 23.148438 21.183594 22.679688 C 21.445312 22.585938 21.667969 22.566406 22.160156 22.578125 C 22.742188 22.601562 22.832031 22.621094 23.21875 22.832031 Z M 23.21875 22.832031 "/>
<path style=" stroke:none;fill-rule:nonzero;fill:rgb(0%,0%,0%);fill-opacity:1;" d="M 10.390625 10.917969 C 9.160156 11.15625 7.730469 11.894531 6.757812 12.804688 L 6.574219 12.96875 L 6.8125 13.28125 L 7.042969 13.597656 L 7.289062 13.371094 C 8.226562 12.503906 9.347656 11.957031 10.796875 11.65625 C 10.945312 11.621094 10.960938 11.59375 10.953125 11.328125 C 10.945312 10.820312 10.933594 10.808594 10.390625 10.917969 Z M 10.390625 10.917969 "/>
<path style=" stroke:none;fill-rule:nonzero;fill:rgb(0%,0%,0%);fill-opacity:1;" d="M 5.699219 13.992188 C 5.558594 14.179688 5.449219 14.34375 5.449219 14.367188 C 5.449219 14.4375 5.925781 14.847656 5.980469 14.820312 C 6.066406 14.78125 6.476562 14.238281 6.476562 14.164062 C 6.476562 14.089844 6.0625 13.671875 5.980469 13.671875 C 5.964844 13.671875 5.832031 13.816406 5.699219 13.992188 Z M 5.699219 13.992188 "/>
<path style=" stroke:none;fill-rule:nonzero;fill:rgb(0%,0%,0%);fill-opacity:1;" d="M 4.09375 23.824219 C 3.777344 23.945312 3.585938 24.117188 3.347656 24.464844 C 3.117188 24.800781 3.027344 25.128906 3.035156 25.601562 C 3.039062 26.257812 3.359375 26.851562 3.882812 27.171875 C 4.164062 27.351562 4.269531 27.378906 4.664062 27.378906 C 5.175781 27.378906 5.46875 27.242188 5.804688 26.851562 C 6.152344 26.460938 6.265625 26.140625 6.265625 25.566406 C 6.265625 25.121094 6.242188 25.007812 6.085938 24.683594 C 5.988281 24.484375 5.8125 24.234375 5.699219 24.125 C 5.285156 23.742188 4.609375 23.617188 4.09375 23.824219 Z M 5.148438 24.535156 C 5.757812 24.898438 5.867188 25.796875 5.363281 26.359375 C 4.691406 27.125 3.632812 26.613281 3.632812 25.523438 C 3.632812 24.671875 4.460938 24.125 5.148438 24.535156 Z M 5.148438 24.535156 "/>
<path style=" stroke:none;fill-rule:nonzero;fill:rgb(0%,0%,0%);fill-opacity:1;" d="M 21.433594 23.859375 C 19.921875 24.648438 20.269531 27.160156 21.910156 27.324219 C 22.347656 27.371094 22.691406 27.261719 23.019531 26.980469 C 23.734375 26.367188 23.886719 25.246094 23.351562 24.460938 C 23.039062 23.992188 22.667969 23.773438 22.140625 23.742188 C 21.789062 23.71875 21.652344 23.742188 21.433594 23.859375 Z M 22.585938 24.554688 C 22.933594 24.828125 23.039062 25.046875 23.039062 25.53125 C 23.039062 25.867188 23.007812 26.011719 22.910156 26.15625 C 22.691406 26.488281 22.488281 26.613281 22.117188 26.648438 C 21.820312 26.667969 21.730469 26.648438 21.554688 26.507812 C 20.902344 26.003906 20.894531 25.0625 21.546875 24.5625 C 21.832031 24.34375 22.304688 24.34375 22.585938 24.554688 Z M 22.585938 24.554688 "/>
<path style=" stroke:none;fill-rule:nonzero;fill:rgb(0%,0%,0%);fill-opacity:1;" d="M 24.765625 11.554688 L 24.765625 11.960938 L 26.578125 11.960938 L 26.578125 11.140625 L 24.765625 11.140625 Z M 24.765625 11.554688 "/>
<path style=" stroke:none;fill-rule:nonzero;fill:rgb(0%,0%,0%);fill-opacity:1;" d="M 27.429688 11.554688 L 27.429688 11.960938 L 28.523438 11.960938 L 28.503906 11.566406 L 28.488281 11.175781 L 27.960938 11.15625 L 27.429688 11.136719 Z M 27.429688 11.554688 "/>
<path style=" stroke:none;fill-rule:nonzero;fill:rgb(0%,0%,0%);fill-opacity:1;" d="M 27.246094 14.046875 L 27.246094 14.421875 L 29.125 14.421875 L 29.125 13.671875 L 27.246094 13.671875 Z M 27.246094 14.046875 "/>
<path style=" stroke:none;fill-rule:nonzero;fill:rgb(0%,0%,0%);fill-opacity:1;" d="M 29.910156 14.046875 L 29.910156 14.421875 L 31 14.421875 L 31 13.671875 L 29.910156 13.671875 Z M 29.910156 14.046875 "/>
<path style=" stroke:none;fill-rule:nonzero;fill:rgb(0%,0%,0%);fill-opacity:1;" d="M 26.335938 17.15625 L 26.335938 17.570312 L 28.222656 17.570312 L 28.203125 17.171875 L 28.183594 16.78125 L 27.265625 16.761719 L 26.335938 16.742188 Z M 26.335938 17.15625 "/>
<path style=" stroke:none;fill-rule:nonzero;fill:rgb(0%,0%,0%);fill-opacity:1;" d="M 29 17.15625 L 29 17.570312 L 30.097656 17.570312 L 30.078125 17.171875 L 30.0625 16.78125 L 29.535156 16.761719 L 29 16.742188 Z M 29 17.15625 "/>
</g>
</svg>
