<?xml version="1.0" standalone="no"?>
<!DOCTYPE svg PUBLIC "-//W3C//DTD SVG 20010904//EN"
 "http://www.w3.org/TR/2001/REC-SVG-20010904/DTD/svg10.dtd">
<svg version="1.0" xmlns="http://www.w3.org/2000/svg"
 width="31.000000pt" height="35.000000pt" viewBox="0 0 512.000000 512.000000"
 preserveAspectRatio="xMidYMid meet">

<g transform="translate(0.000000,512.000000) scale(0.100000,-0.100000)"
fill="#000000" stroke="none">
<path fill='#FBDB05' d="M2089 4242 c-62 -32 -113 -94 -130 -155 -14 -52 -7 -143 15 -184 l16
-31 -53 -7 c-277 -34 -509 -101 -727 -210 -221 -110 -347 -201 -515 -369 -256
-258 -403 -550 -445 -888 l-12 -98 -42 -24 c-86 -50 -152 -143 -181 -253 -21
-81 -19 -126 6 -149 19 -17 43 -19 240 -24 l219 -5 -55 -42 c-152 -118 -230
-323 -193 -511 42 -214 195 -375 408 -428 84 -21 231 -14 312 14 162 58 296
201 343 365 22 77 22 208 0 284 -33 114 -104 218 -205 297 l-35 27 95 -5 c52
-3 562 -8 1132 -12 l1037 -7 -62 -61 c-168 -165 -208 -416 -102 -626 56 -111
171 -212 295 -257 66 -25 89 -28 190 -28 141 0 214 22 319 96 120 84 201 217
223 366 23 156 -33 323 -148 440 l-62 63 203 0 c183 0 203 2 218 18 20 22 21
60 6 134 -24 116 -98 223 -183 268 -44 24 -45 25 -51 85 -7 63 -22 164 -32
203 -5 20 -1 22 31 22 l36 0 0 60 0 60 -54 0 -53 0 -18 48 c-9 26 -46 102 -81
170 l-63 122 215 0 214 0 0 55 0 55 -256 0 -255 0 -27 33 c-14 17 -67 74 -116
125 l-90 92 162 0 162 0 0 60 0 60 -244 0 c-220 0 -246 2 -267 18 -33 25 -183
114 -244 145 -174 86 -458 173 -645 197 -52 7 -100 14 -107 16 -8 2 -6 18 9
56 23 61 21 154 -5 205 -68 131 -221 182 -348 115z m195 -113 c79 -62 71 -185
-15 -231 -117 -62 -245 64 -184 182 25 49 62 70 120 70 38 0 60 -6 79 -21z
m111 -379 c247 -24 508 -96 720 -200 l120 -58 -142 -1 -143 -1 0 -60 0 -60
236 0 237 0 56 -47 c72 -59 201 -185 201 -195 0 -5 -72 -8 -160 -8 l-160 0 0
-55 0 -55 213 -2 212 -3 37 -55 c40 -59 138 -249 138 -268 0 -9 -98 -12 -375
-12 l-375 0 0 -60 0 -60 395 0 395 0 11 -27 c12 -32 44 -232 38 -238 -3 -2
-457 0 -1009 6 -553 5 -1379 13 -1837 17 -457 4 -834 10 -838 14 -13 12 25
211 60 316 243 727 1075 1196 1970 1112z m245 -1575 c954 -8 1474 -17 1491
-23 65 -26 149 -136 149 -196 0 -19 -16 -19 -767 -13 -1749 14 -3378 30 -3382
33 -10 9 13 77 40 117 31 47 78 83 127 97 15 4 218 5 452 3 234 -2 1084 -10
1890 -18z m-1709 -381 c149 -59 252 -185 279 -343 32 -184 -71 -375 -249 -460
-66 -31 -87 -36 -168 -39 -120 -6 -209 21 -297 87 -264 202 -221 598 80 742
104 49 249 54 355 13z m2904 -14 c176 -84 279 -276 247 -461 -38 -220 -217
-369 -443 -369 -220 0 -401 150 -440 365 -37 204 96 419 300 487 43 14 80 17
161 15 96 -3 111 -6 175 -37z"/>
<path fill='#FBDB05' d="M1716 3523 c-203 -35 -439 -143 -600 -276 l-30 -24 39 -46 38 -46 41
33 c155 127 340 207 579 251 25 5 27 9 26 48 -1 74 -3 76 -93 60z"/>
<path fill='white' d="M941 3073 c-23 -27 -41 -51 -41 -55 0 -10 79 -70 88 -66 14 6 82 85
82 96 0 11 -69 72 -82 72 -3 0 -25 -21 -47 -47z"/>
<path fill='white' d="M676 1635 c-52 -18 -84 -43 -123 -94 -38 -49 -53 -97 -52 -166 1 -96
54 -183 140 -230 47 -26 64 -30 129 -30 85 0 133 20 189 77 57 57 76 104 76
188 0 65 -4 82 -30 129 -16 29 -45 66 -64 82 -68 56 -180 74 -265 44z m174
-104 c101 -53 119 -185 36 -267 -111 -112 -286 -37 -286 122 0 125 137 205
250 145z"/>
<path fill='#FBDB05' d="M3540 1630 c-250 -116 -192 -483 79 -507 72 -7 129 9 183 50 118 90
143 254 55 369 -52 68 -113 100 -200 105 -58 3 -81 0 -117 -17z m190 -102 c58
-40 75 -72 75 -143 0 -49 -5 -70 -21 -91 -36 -49 -70 -67 -131 -72 -49 -3 -64
0 -93 20 -108 74 -109 212 -1 285 47 32 125 32 171 1z"/>
<path fill='#FBDB05' d="M4090 3430 l0 -60 150 0 150 0 0 60 0 60 -150 0 -150 0 0 -60z"/>
<path fill='#FBDB05' d="M4530 3430 l0 -60 90 0 91 0 -3 58 -3 57 -87 3 -88 3 0 -61z"/>
<path fill='#FBDB05' d="M4500 3065 l0 -55 155 0 155 0 0 55 0 55 -155 0 -155 0 0 -55z"/>
<path fill='#FBDB05' d="M4940 3065 l0 -55 90 0 90 0 0 55 0 55 -90 0 -90 0 0 -55z"/>
<path fill='#FBDB05' d="M4350 2610 l0 -60 155 0 156 0 -3 58 -3 57 -152 3 -153 3 0 -61z"/>
<path fill='#FBDB05' d="M4790 2610 l0 -60 90 0 91 0 -3 58 -3 57 -87 3 -88 3 0 -61z"/>
</g>
</svg>
