<?xml version="1.0" standalone="no"?>
<!DOCTYPE svg PUBLIC "-//W3C//DTD SVG 20010904//EN"
 "http://www.w3.org/TR/2001/REC-SVG-20010904/DTD/svg10.dtd">
<svg version="1.0" xmlns="http://www.w3.org/2000/svg"
 width="512.000000pt" height="512.000000pt" viewBox="0 0 512.000000 512.000000"
 preserveAspectRatio="xMidYMid meet">

<g transform="translate(0.000000,512.000000) scale(0.100000,-0.100000)"
fill="#000000" stroke="none">
<path d="M2064 4181 c-34 -21 -64 -75 -64 -116 0 -88 96 -161 176 -135 108 36
127 192 31 250 -41 25 -103 25 -143 1z"/>
<path d="M1887 3789 c-234 -23 -520 -105 -732 -211 -519 -259 -849 -697 -909
-1209 l-5 -46 482 -6 c1059 -14 3287 -30 3294 -23 7 7 -11 153 -29 224 l-10
42 -409 0 -409 0 0 60 0 60 390 2 389 3 -49 102 c-26 56 -69 134 -94 173 l-46
70 -215 0 -215 0 0 60 0 60 167 0 167 0 -64 66 c-36 36 -98 92 -138 125 l-73
59 -245 0 -244 0 0 60 0 60 153 0 152 1 -80 41 c-369 189 -799 268 -1228 227z
m-163 -250 c3 -17 6 -44 6 -59 0 -25 -4 -29 -42 -35 -207 -33 -399 -115 -557
-238 l-65 -50 -38 44 -37 43 22 24 c36 39 206 148 291 186 88 40 207 79 306
100 99 22 107 21 114 -15z m-790 -428 l39 -40 -31 -39 c-54 -67 -56 -68 -106
-31 -25 18 -43 37 -39 43 13 23 85 106 92 106 4 0 24 -18 45 -39z"/>
<path d="M3436 3511 c5 -5 38 -32 73 -60 l64 -51 169 0 168 0 0 60 0 60 -242
0 c-143 0 -238 -4 -232 -9z"/>
<path d="M4060 3460 l0 -60 160 0 160 0 0 60 0 60 -160 0 -160 0 0 -60z"/>
<path d="M4510 3460 l0 -60 95 0 95 0 0 60 0 60 -95 0 -95 0 0 -60z"/>
<path d="M3820 3144 c0 -3 17 -30 38 -59 l37 -54 223 -1 222 0 0 60 0 60 -260
0 c-143 0 -260 -3 -260 -6z"/>
<path d="M4490 3090 l0 -60 155 0 155 0 0 60 0 60 -155 0 -155 0 0 -60z"/>
<path d="M4940 3090 l0 -60 90 0 90 0 0 60 0 60 -90 0 -90 0 0 -60z"/>
<path d="M4074 2664 c4 -9 11 -36 17 -60 11 -43 13 -44 50 -44 l39 0 0 60 0
60 -56 0 c-48 0 -55 -2 -50 -16z"/>
<path d="M4330 2620 l0 -60 155 0 155 0 0 60 0 60 -155 0 -155 0 0 -60z"/>
<path d="M4780 2620 l0 -60 90 0 90 0 0 60 0 60 -90 0 -90 0 0 -60z"/>
<path d="M162 2187 c-69 -26 -137 -107 -156 -188 l-6 -27 493 -6 c270 -3 1001
-11 1622 -16 622 -5 1358 -13 1638 -16 506 -7 507 -7 507 14 0 30 -33 103 -65
140 -15 18 -46 42 -69 54 -41 21 -46 21 -1441 34 -770 7 -1645 14 -1945 17
-410 4 -553 3 -578 -6z"/>
<path d="M570 1810 c-75 -16 -181 -75 -237 -132 -135 -138 -167 -327 -85 -501
157 -332 627 -347 815 -26 138 234 14 549 -252 640 -66 23 -178 32 -241 19z
m183 -186 c59 -20 130 -82 155 -137 87 -181 -43 -391 -241 -391 -186 1 -314
171 -263 348 25 86 100 160 186 187 42 13 114 10 163 -7z"/>
<path d="M595 1521 c-167 -77 -115 -323 68 -323 55 0 86 13 123 51 82 84 56
224 -49 272 -53 23 -91 24 -142 0z"/>
<path d="M3451 1791 c-257 -96 -377 -378 -261 -616 55 -115 146 -193 271 -235
53 -18 81 -21 165 -18 93 3 107 6 177 41 97 48 166 117 214 213 31 64 36 85
40 166 4 78 2 104 -17 157 -43 127 -120 216 -240 274 -60 29 -75 32 -180 34
-95 3 -124 0 -169 -16z m275 -179 c87 -45 143 -126 151 -222 23 -250 -284
-392 -462 -215 -137 138 -84 382 98 449 57 21 160 15 213 -12z"/>
<path d="M3532 1519 c-55 -27 -84 -70 -90 -130 -6 -62 2 -90 34 -129 83 -98
235 -78 286 37 39 88 2 184 -86 224 -54 24 -91 24 -144 -2z"/>
</g>
</svg>
